<svg xmlns="http://www.w3.org/2000/svg" viewBox="0 0 400 500" preserveAspectRatio="xMidYMid slice">
  <defs>
    <linearGradient id="bg-dr" x1="0" y1="0" x2="0" y2="1">
      <stop offset="0" stop-color="#1a2d48"/>
      <stop offset="1" stop-color="#070d18"/>
    </linearGradient>
    <linearGradient id="liq-dr" x1="0" y1="0" x2="0" y2="1">
      <stop offset="0" stop-color="#d4b883" stop-opacity="0.85"/>
      <stop offset="1" stop-color="#6b4020" stop-opacity="0.9"/>
    </linearGradient>
  </defs>
  <rect width="400" height="500" fill="url(#bg-dr)"/>
  <g opacity="0.85">
    <path d="M160 180 L240 180 L235 340 Q235 358 220 362 L180 362 Q165 358 165 340 Z" fill="url(#liq-dr)" opacity="0.85"/>
    <path d="M160 180 L240 180 L238 195 L162 195 Z" fill="#fafaf7" opacity="0.2"/>
    <path d="M158 178 L242 178 L240 360 Q240 378 222 383 L178 383 Q160 378 160 360 Z" fill="none" stroke="#fafaf7" stroke-width="1.4" opacity="0.8"/>
    <circle cx="185" cy="240" r="14" fill="none" stroke="#fafaf7" stroke-width="1" opacity="0.4"/>
    <circle cx="215" cy="280" r="12" fill="none" stroke="#fafaf7" stroke-width="1" opacity="0.35"/>
    <path d="M180 210 L180 230 L225 230 L225 210 Z" fill="#b89560" opacity="0.3"/>
  </g>
  <text x="200" y="440" text-anchor="middle" fill="#b89560" font-family="Georgia, serif" font-size="16" letter-spacing="4" opacity="0.7">MÖRK ROM</text>
</svg>
