<svg xmlns="http://www.w3.org/2000/svg" viewBox="0 0 400 500" preserveAspectRatio="xMidYMid slice">
  <defs>
    <linearGradient id="bg-ng" x1="0" y1="0" x2="0" y2="1">
      <stop offset="0" stop-color="#1a2d48"/>
      <stop offset="1" stop-color="#070d18"/>
    </linearGradient>
    <linearGradient id="liq-ng" x1="0" y1="0" x2="0" y2="1">
      <stop offset="0" stop-color="#d45a3e" stop-opacity="0.9"/>
      <stop offset="1" stop-color="#8c2a1e" stop-opacity="0.9"/>
    </linearGradient>
  </defs>
  <rect width="400" height="500" fill="url(#bg-ng)"/>
  <g opacity="0.88">
    <path d="M155 210 L245 210 L240 320 Q240 335 225 338 L175 338 Q160 335 160 320 Z" fill="url(#liq-ng)" opacity="0.9"/>
    <path d="M153 208 L247 208 L245 322 Q245 340 225 344 L175 344 Q155 340 155 322 Z" fill="none" stroke="#fafaf7" stroke-width="1.4" opacity="0.85"/>
    <path d="M155 210 L245 210 L243 225 L157 225 Z" fill="#fafaf7" opacity="0.2"/>
    <circle cx="220" cy="230" r="16" fill="none" stroke="#b89560" stroke-width="1.8" opacity="0.85"/>
    <path d="M218 214 L222 214 L220 230 Z" fill="#b89560" opacity="0.9"/>
    <path d="M175 260 Q185 270 180 285" stroke="#fafaf7" stroke-width="1" fill="none" opacity="0.5"/>
  </g>
  <text x="200" y="440" text-anchor="middle" fill="#b89560" font-family="Georgia, serif" font-size="16" letter-spacing="4" opacity="0.7">NEGRONI</text>
</svg>
